<svg height="512pt" viewBox="0 0 512 512" width="512pt" xmlns="http://www.w3.org/2000/svg"><path d="m156.269531 221c-3.386719 0-6.542969-1.714844-8.386719-4.554688l-53.792968-82.859374c-1.996094-3.074219-2.148438-6.996094-.398438-10.21875 1.75-3.21875 5.121094-5.226563 8.789063-5.226563h16.4375v-108.140625c0-5.523438 4.476562-10 10-10h54.703125c5.523437 0 10 4.476562 10 10v108.140625h16.4375c3.667968 0 7.039062 2.007813 8.789062 5.230469s1.59375 7.140625-.402344 10.21875l-53.789062 82.855468c-1.84375 2.839844-5 4.554688-8.386719 4.554688zm-35.375-82.859375 35.375 54.492187 35.375-54.492187h-8.023437c-5.523438 0-10-4.476563-10-10v-108.140625h-34.703125v108.140625c0 5.523437-4.476563 10-10 10zm0 0"/><path d="m255.820312 512c-4.179687 0-8.007812-2.710938-9.414062-6.636719-1.390625-3.871093-.195312-8.328125 2.945312-10.984375 3.289063-2.785156 8.082032-3.117187 11.742188-.863281 3.496094 2.152344 5.335938 6.410156 4.527344 10.433594-.929688 4.613281-5.085938 8.050781-9.800782 8.050781zm0 0"/><path d="m502 437.050781h-36.535156v-153.667969c0-6.585937-2.339844-12.636718-6.230469-17.363281 3.890625-4.726562 6.230469-10.773437 6.230469-17.359375v-146.304687c0-15.089844-12.273438-27.363281-27.363282-27.363281h-164.742187c-15.085937 0-27.359375 12.273437-27.359375 27.363281v146.304687c0 3.085938.511719 6.050782 1.457031 8.820313-2.765625-.945313-5.734375-1.457031-8.816406-1.457031h-164.742187c-15.089844 0-27.363282 12.273437-27.363282 27.359374v153.667969h-36.535156c-5.523438 0-10 4.476563-10 10v54.949219c0 5.523438 4.476562 10 10 10h200.777344c5.519531 0 10-4.476562 10-10s-4.480469-10-10-10h-190.777344v-34.949219h472v34.949219h-190.777344c-5.519531 0-10 4.476562-10 10s4.480469 10 10 10h200.777344c5.523438 0 10-4.476562 10-10v-54.949219c0-5.523437-4.476562-10-10-10zm-123.679688-342.058593v62.4375l-17.898437-9.503907c-1.46875-.777343-3.078125-1.167969-4.691406-1.167969-1.609375 0-3.222657.390626-4.6875 1.167969l-17.898438 9.503907v-62.4375zm-112.320312 7.363281c0-4.058594 3.300781-7.363281 7.359375-7.363281h39.785156v79.074218c0 3.507813 1.839844 6.761719 4.847657 8.570313 1.582031.949219 3.367187 1.429687 5.152343 1.429687 1.609375 0 3.222657-.390625 4.691407-1.167968l27.894531-14.820313 27.898437 14.820313c3.097656 1.644531 6.835938 1.546874 9.839844-.261719 3.007812-1.808594 4.847656-5.0625 4.847656-8.570313v-79.074218h39.785156c4.058594 0 7.359376 3.304687 7.359376 7.363281v146.304687c0 4.058594-3.300782 7.363282-7.359376 7.363282h-164.742187c-4.058594 0-7.359375-3.304688-7.359375-7.363282zm67.144531 173.667969h45.175781v62.4375l-17.898437-9.507813c-1.464844-.777344-3.078125-1.167969-4.6875-1.167969-1.613281 0-3.226563.390625-4.691406 1.167969l-17.894531 9.507813v-62.4375zm-154.289062 0v62.4375l-17.894531-9.507813c-2.9375-1.558594-6.449219-1.554687-9.382813 0l-17.898437 9.507813v-62.4375zm-112.320313 7.359374c0-4.058593 3.304688-7.363281 7.363282-7.363281h39.78125v79.074219c0 3.507812 1.839843 6.761719 4.847656 8.570312 1.582031.949219 3.367187 1.429688 5.152344 1.429688 1.609374 0 3.222656-.390625 4.691406-1.167969l27.898437-14.816406 27.894531 14.816406c3.097657 1.644531 6.835938 1.546875 9.84375-.261719 3.007813-1.808593 4.847657-5.0625 4.847657-8.570312v-79.070312h39.785156c4.058594 0 7.359375 3.300781 7.359375 7.359374v153.667969h-179.464844zm199.464844 153.667969v-153.667969c0-4.058593 3.300781-7.363281 7.359375-7.363281h39.785156v79.074219c0 3.507812 1.839844 6.761719 4.847657 8.570312 3.007812 1.808594 6.742187 1.90625 9.84375.261719l27.894531-14.820312 27.898437 14.820312c1.46875.777344 3.082032 1.167969 4.6875 1.167969 1.789063 0 3.570313-.480469 5.152344-1.433594 3.007812-1.804687 4.847656-5.058594 4.847656-8.566406v-79.074219h39.785156c4.058594 0 7.359376 3.300781 7.359376 7.363281v153.667969zm0 0"/></svg>