<svg height="512pt" viewBox="0 0 512 512" width="512pt" xmlns="http://www.w3.org/2000/svg"><path d="m183.621094 221h-54.707032c-5.519531 0-10-4.476562-10-10v-108.144531h-16.4375c-3.664062 0-7.039062-2.003907-8.785156-5.226563-1.75-3.222656-1.597656-7.140625.398438-10.21875l53.789062-82.855468c1.847656-2.839844 5.003906-4.554688 8.390625-4.554688s6.542969 1.714844 8.386719 4.554688l53.789062 82.855468c1.996094 3.078125 2.148438 6.996094.402344 10.21875-1.75 3.222656-5.125 5.230469-8.789062 5.230469h-16.4375v108.140625c0 5.519531-4.476563 10-10 10zm-44.707032-20h34.707032v-108.144531c0-5.519531 4.476562-10 10-10h8.023437l-35.375-54.492188-35.378906 54.492188h8.023437c5.523438 0 10 4.480469 10 10zm0 0"/><path d="m255.820312 512c-4.183593 0-8.003906-2.703125-9.414062-6.636719-1.402344-3.902343-.171875-8.40625 3.023438-11.050781 3.101562-2.570312 7.546874-3.007812 11.097656-1.125 3.679687 1.953125 5.808594 6.15625 5.175781 10.277344-.738281 4.832031-4.976563 8.535156-9.882813 8.535156zm0 0"/><path d="m502 437.050781h-36.535156v-153.667969c0-6.585937-2.339844-12.636718-6.230469-17.363281 3.890625-4.726562 6.230469-10.773437 6.230469-17.359375v-146.304687c0-15.089844-12.273438-27.363281-27.363282-27.363281h-164.742187c-15.085937 0-27.359375 12.273437-27.359375 27.363281v146.304687c0 3.085938.511719 6.050782 1.457031 8.820313-2.765625-.945313-5.734375-1.457031-8.816406-1.457031h-164.742187c-15.089844 0-27.363282 12.273437-27.363282 27.359374v153.667969h-36.535156c-5.523438 0-10 4.476563-10 10v54.949219c0 5.523438 4.476562 10 10 10h200.777344c5.523437 0 10-4.476562 10-10s-4.476563-10-10-10h-190.777344v-34.949219h472v34.949219h-190.777344c-5.519531 0-10 4.476562-10 10s4.480469 10 10 10h200.777344c5.523438 0 10-4.476562 10-10v-54.949219c0-5.523437-4.476562-10-10-10zm-123.679688-342.058593v62.4375l-17.898437-9.503907c-1.46875-.777343-3.078125-1.167969-4.691406-1.167969-1.609375 0-3.222657.390626-4.6875 1.167969l-17.898438 9.503907v-62.4375zm-112.320312 7.363281c0-4.058594 3.300781-7.363281 7.359375-7.363281h39.785156v79.074218c0 3.507813 1.839844 6.761719 4.847657 8.570313 1.582031.949219 3.367187 1.429687 5.152343 1.429687 1.609375 0 3.222657-.390625 4.691407-1.167968l27.894531-14.820313 27.898437 14.820313c3.097656 1.644531 6.835938 1.546874 9.839844-.261719 3.007812-1.808594 4.847656-5.0625 4.847656-8.570313v-79.074218h39.785156c4.058594 0 7.359376 3.304687 7.359376 7.363281v146.304687c0 4.058594-3.300782 7.363282-7.359376 7.363282h-164.742187c-4.058594 0-7.359375-3.304688-7.359375-7.363282zm67.144531 173.667969h45.175781v62.4375l-17.898437-9.507813c-1.464844-.777344-3.078125-1.167969-4.6875-1.167969-1.613281 0-3.226563.390625-4.691406 1.167969l-17.894531 9.507813v-62.4375zm-154.289062 0v62.4375l-17.898438-9.507813c-1.464843-.777344-3.078125-1.167969-4.6875-1.167969-1.613281 0-3.226562.390625-4.691406 1.167969l-17.898437 9.507813v-62.4375zm-112.320313 7.359374c0-4.058593 3.304688-7.363281 7.363282-7.363281h39.78125v79.074219c0 3.507812 1.839843 6.761719 4.847656 8.570312 3.011718 1.808594 6.746094 1.90625 9.84375.261719l27.898437-14.820312 27.894531 14.820312c1.46875.777344 3.082032 1.167969 4.691407 1.167969 1.785156 0 3.570312-.480469 5.152343-1.433594 3.007813-1.804687 4.847657-5.058594 4.847657-8.566406v-79.074219h39.785156c4.058594 0 7.359375 3.300781 7.359375 7.363281v153.667969h-179.464844zm199.464844 153.667969v-153.667969c0-4.058593 3.300781-7.363281 7.359375-7.363281h39.785156v79.074219c0 3.507812 1.839844 6.761719 4.847657 8.570312 3.007812 1.808594 6.742187 1.90625 9.84375.261719l27.894531-14.820312 27.898437 14.820312c1.46875.777344 3.082032 1.167969 4.6875 1.167969 1.789063 0 3.570313-.480469 5.152344-1.433594 3.007812-1.804687 4.847656-5.058594 4.847656-8.566406v-79.074219h39.785156c4.058594 0 7.359376 3.300781 7.359376 7.363281v153.667969zm0 0"/></svg>