<svg id="Layer_2" height="512" viewBox="0 0 128 128" width="512" xmlns="http://www.w3.org/2000/svg" data-name="Layer 2"><path d="m1.75 115.5h124.5v10.75h-124.5z" fill="#5d4037"/><path d="m1.75 115.5v3h115.5a6 6 0 0 1 6 6v1.75h3v-10.75z" fill="#4c352e"/><path d="m62.5 77.583h50v37.917h-50z" fill="#ffca90"/><path d="m94.208 93.542-6.708-4-6.708 4v-15.959h13.416z" fill="#fb8c00"/><path d="m92.75 103.167h12.75v5.333h-12.75z" fill="#00acc1"/><path d="m92.75 103.167v2h7.417a3.333 3.333 0 0 1 3.333 3.333h2v-5.333z" fill="#0097a7"/><path d="m12.5 77.583h50v37.917h-50z" fill="#ffca90"/><path d="m44.208 93.542-6.708-4-6.708 4v-15.959h13.416z" fill="#fb8c00"/><path d="m42.75 103.167h12.75v5.333h-12.75z" fill="#00acc1"/><path d="m62.5 39.667h50v37.917h-50z" fill="#ffca90"/><path d="m94.208 55.625-6.708-4-6.708 4v-15.958h13.416z" fill="#fb8c00"/><path d="m92.75 65.25h12.75v5.333h-12.75z" fill="#00acc1"/><path d="m12.5 39.667h50v37.917h-50z" fill="#ffca90"/><path d="m44.208 55.625-6.708-4-6.708 4v-15.958h13.416z" fill="#fb8c00"/><path d="m42.75 65.25h12.75v5.333h-12.75z" fill="#00acc1"/><path d="m62.5 1.75h50v37.917h-50z" fill="#ffca90"/><path d="m94.208 17.708-6.708-4-6.708 4v-15.958h13.416z" fill="#fb8c00"/><path d="m92.75 27.333h12.75v5.333h-12.75z" fill="#00acc1"/><path d="m12.5 1.75h50v37.917h-50z" fill="#ffca90"/><path d="m12.5 1.75v4h40a6 6 0 0 1 6 6v27.917h4v-37.917z" fill="#dda976"/><path d="m44.208 17.708-6.708-4-6.708 4v-15.958h13.416z" fill="#fb8c00"/><path d="m42.75 27.333h12.75v5.333h-12.75z" fill="#00acc1"/><path d="m30.792 1.75h13.417v4h-13.417z" fill="#ef6c00"/><path d="m62.5 1.75v4h40a6 6 0 0 1 6 6v27.917h4v-37.917z" fill="#dda976"/><path d="m80.792 1.75h13.417v4h-13.417z" fill="#ef6c00"/><path d="m12.5 39.667v4h40a6 6 0 0 1 6 6v27.916h4v-37.916z" fill="#dda976"/><path d="m30.792 39.667h13.417v4h-13.417z" fill="#ef6c00"/><path d="m62.5 39.667v4h40a6 6 0 0 1 6 6v27.916h4v-37.916z" fill="#dda976"/><path d="m80.792 39.667h13.417v4h-13.417z" fill="#ef6c00"/><path d="m12.5 77.583v4h40a6 6 0 0 1 6 6v27.917h4v-37.917z" fill="#dda976"/><path d="m30.792 77.583h13.417v4h-13.417z" fill="#ef6c00"/><path d="m62.5 77.583v4h40a6 6 0 0 1 6 6v27.917h4v-37.917z" fill="#dda976"/><path d="m80.792 77.583h13.417v4h-13.417z" fill="#ef6c00"/><g fill="#0097a7"><path d="m42.75 103.167v2h7.417a3.333 3.333 0 0 1 3.333 3.333h2v-5.333z"/><path d="m92.75 65.25v2h7.417a3.333 3.333 0 0 1 3.333 3.333h2v-5.333z"/><path d="m42.75 65.25v2h7.417a3.333 3.333 0 0 1 3.333 3.333h2v-5.333z"/><path d="m92.75 27.333v2h7.417a3.333 3.333 0 0 1 3.333 3.333h2v-5.333z"/><path d="m42.75 27.333v2h7.417a3.333 3.333 0 0 1 3.333 3.334h2v-5.334z"/></g></svg>