<?xml version="1.0"?>
<svg xmlns="http://www.w3.org/2000/svg" id="Layer_2" data-name="Layer 2" viewBox="0 0 128 128" width="512" height="512"><title>STOCK</title><path d="M126.25,113.75h-12V1.75A1.746,1.746,0,0,0,112.5,0H12.5a1.746,1.746,0,0,0-1.75,1.75v112h-9A1.746,1.746,0,0,0,0,115.5v10.75A1.746,1.746,0,0,0,1.75,128h124.5a1.746,1.746,0,0,0,1.75-1.75V115.5A1.746,1.746,0,0,0,126.25,113.75ZM82.54,3.5h9.92V14.63L88.4,12.21a1.745,1.745,0,0,0-1.8,0l-4.06,2.42Zm-18.29,0H79.04V17.71a1.753,1.753,0,0,0,2.65,1.5l5.81-3.46,5.81,3.46a1.724,1.724,0,0,0,.9.25,1.76,1.76,0,0,0,1.75-1.75V3.5h14.79V37.92H64.25ZM92.46,41.42V52.54L88.4,50.12a1.808,1.808,0,0,0-1.8,0l-4.06,2.42V41.42Zm-28.21,0H79.04v14.2a1.753,1.753,0,0,0,2.65,1.51l5.81-3.47,5.81,3.47a1.823,1.823,0,0,0,.9.25,1.76,1.76,0,0,0,1.75-1.76V41.42h14.79V75.83H64.25ZM92.46,79.33V90.46L88.4,88.04a1.745,1.745,0,0,0-1.8,0l-4.06,2.42V79.33Zm-28.21,0H79.04V93.54a1.753,1.753,0,0,0,2.65,1.5l5.81-3.46,5.81,3.46a1.725,1.725,0,0,0,.9.25,1.659,1.659,0,0,0,.86-.23,1.745,1.745,0,0,0,.89-1.52V79.33h14.79v34.42H64.25ZM32.54,3.5h9.92V14.63L38.4,12.21a1.745,1.745,0,0,0-1.8,0l-4.06,2.42Zm-18.29,0H29.04V17.71a1.753,1.753,0,0,0,2.65,1.5l5.81-3.46,5.81,3.46a1.724,1.724,0,0,0,.9.25,1.76,1.76,0,0,0,1.75-1.75V3.5H60.75V37.92H14.25ZM42.46,41.42V52.54L38.4,50.12a1.808,1.808,0,0,0-1.8,0l-4.06,2.42V41.42Zm-28.21,0H29.04v14.2a1.753,1.753,0,0,0,2.65,1.51l5.81-3.47,5.81,3.47a1.823,1.823,0,0,0,.9.25,1.76,1.76,0,0,0,1.75-1.76V41.42H60.75V75.83H14.25ZM42.46,79.33V90.46L38.4,88.04a1.745,1.745,0,0,0-1.8,0l-4.06,2.42V79.33Zm-28.21,0H29.04V93.54a1.753,1.753,0,0,0,2.65,1.5l5.81-3.46,5.81,3.46a1.725,1.725,0,0,0,.9.25,1.659,1.659,0,0,0,.86-.23,1.745,1.745,0,0,0,.89-1.52V79.33H60.75v34.42H14.25ZM124.5,124.5H3.5v-7.25h121Z"/><path d="M105.5,101.417H92.75a1.75,1.75,0,0,0-1.75,1.75V108.5a1.75,1.75,0,0,0,1.75,1.75H105.5a1.75,1.75,0,0,0,1.75-1.75v-5.333A1.75,1.75,0,0,0,105.5,101.417Zm-1.75,5.333H94.5v-1.833h9.25Z"/><path d="M55.5,101.417H42.75a1.75,1.75,0,0,0-1.75,1.75V108.5a1.75,1.75,0,0,0,1.75,1.75H55.5a1.75,1.75,0,0,0,1.75-1.75v-5.333A1.75,1.75,0,0,0,55.5,101.417Zm-1.75,5.333H44.5v-1.833h9.25Z"/><path d="M92.75,72.333H105.5a1.75,1.75,0,0,0,1.75-1.75V65.25a1.75,1.75,0,0,0-1.75-1.75H92.75A1.75,1.75,0,0,0,91,65.25v5.333A1.75,1.75,0,0,0,92.75,72.333ZM94.5,67h9.25v1.833H94.5Z"/><path d="M55.5,63.5H42.75A1.75,1.75,0,0,0,41,65.25v5.333a1.75,1.75,0,0,0,1.75,1.75H55.5a1.75,1.75,0,0,0,1.75-1.75V65.25A1.75,1.75,0,0,0,55.5,63.5Zm-1.75,5.333H44.5V67h9.25Z"/><path d="M92.75,25.583A1.75,1.75,0,0,0,91,27.333v5.334a1.75,1.75,0,0,0,1.75,1.75H105.5a1.75,1.75,0,0,0,1.75-1.75V27.333a1.75,1.75,0,0,0-1.75-1.75Zm11,5.334H94.5V29.083h9.25Z"/><path d="M42.75,34.417H55.5a1.75,1.75,0,0,0,1.75-1.75V27.333a1.75,1.75,0,0,0-1.75-1.75H42.75A1.75,1.75,0,0,0,41,27.333v5.334A1.75,1.75,0,0,0,42.75,34.417Zm1.75-5.334h9.25v1.834H44.5Z"/></svg>
